<svg id="visual" viewBox="0 0 960 540" width="960" height="540" xmlns="http://www.w3.org/2000/svg" xmlns:xlink="http://www.w3.org/1999/xlink" version="1.1"><rect x="0" y="0" width="960" height="540" fill="#11001f"></rect><path d="M0 481L8 480C16 479 32 477 48 474.2C64 471.3 80 467.7 96 463C112 458.3 128 452.7 144 450.7C160 448.7 176 450.3 192 456.5C208 462.7 224 473.3 240 478.8C256 484.3 272 484.7 288 481.3C304 478 320 471 336 465C352 459 368 454 384 451.2C400 448.3 416 447.7 432 451C448 454.3 464 461.7 480 464.3C496 467 512 465 528 468.7C544 472.3 560 481.7 576 484.8C592 488 608 485 624 482.5C640 480 656 478 672 479.5C688 481 704 486 720 486.8C736 487.7 752 484.3 768 480.7C784 477 800 473 816 474.2C832 475.3 848 481.7 864 477.3C880 473 896 458 912 451C928 444 944 445 952 445.5L960 446L960 541L952 541C944 541 928 541 912 541C896 541 880 541 864 541C848 541 832 541 816 541C800 541 784 541 768 541C752 541 736 541 720 541C704 541 688 541 672 541C656 541 640 541 624 541C608 541 592 541 576 541C560 541 544 541 528 541C512 541 496 541 480 541C464 541 448 541 432 541C416 541 400 541 384 541C368 541 352 541 336 541C320 541 304 541 288 541C272 541 256 541 240 541C224 541 208 541 192 541C176 541 160 541 144 541C128 541 112 541 96 541C80 541 64 541 48 541C32 541 16 541 8 541L0 541Z" fill="#2f0656"></path><path d="M0 459L8 465.5C16 472 32 485 48 488C64 491 80 484 96 482.5C112 481 128 485 144 482C160 479 176 469 192 465.7C208 462.3 224 465.7 240 468.3C256 471 272 473 288 471.7C304 470.3 320 465.7 336 463C352 460.3 368 459.7 384 465C400 470.3 416 481.7 432 484.2C448 486.7 464 480.3 480 478C496 475.7 512 477.3 528 475.2C544 473 560 467 576 464.2C592 461.3 608 461.7 624 461.8C640 462 656 462 672 467.3C688 472.7 704 483.3 720 488C736 492.7 752 491.3 768 491.7C784 492 800 494 816 490.3C832 486.7 848 477.3 864 477.7C880 478 896 488 912 486.7C928 485.3 944 472.7 952 466.3L960 460L960 541L952 541C944 541 928 541 912 541C896 541 880 541 864 541C848 541 832 541 816 541C800 541 784 541 768 541C752 541 736 541 720 541C704 541 688 541 672 541C656 541 640 541 624 541C608 541 592 541 576 541C560 541 544 541 528 541C512 541 496 541 480 541C464 541 448 541 432 541C416 541 400 541 384 541C368 541 352 541 336 541C320 541 304 541 288 541C272 541 256 541 240 541C224 541 208 541 192 541C176 541 160 541 144 541C128 541 112 541 96 541C80 541 64 541 48 541C32 541 16 541 8 541L0 541Z" fill="#53195d"></path><path d="M0 500L8 499.7C16 499.3 32 498.7 48 498C64 497.3 80 496.7 96 497.2C112 497.7 128 499.3 144 501.7C160 504 176 507 192 505.5C208 504 224 498 240 498.3C256 498.7 272 505.3 288 506C304 506.7 320 501.3 336 501.5C352 501.7 368 507.3 384 504.2C400 501 416 489 432 488C448 487 464 497 480 500.3C496 503.7 512 500.3 528 496.7C544 493 560 489 576 485.8C592 482.7 608 480.3 624 483.7C640 487 656 496 672 497C688 498 704 491 720 488C736 485 752 486 768 489.7C784 493.3 800 499.7 816 502.2C832 504.7 848 503.3 864 503.8C880 504.3 896 506.7 912 506.7C928 506.7 944 504.3 952 503.2L960 502L960 541L952 541C944 541 928 541 912 541C896 541 880 541 864 541C848 541 832 541 816 541C800 541 784 541 768 541C752 541 736 541 720 541C704 541 688 541 672 541C656 541 640 541 624 541C608 541 592 541 576 541C560 541 544 541 528 541C512 541 496 541 480 541C464 541 448 541 432 541C416 541 400 541 384 541C368 541 352 541 336 541C320 541 304 541 288 541C272 541 256 541 240 541C224 541 208 541 192 541C176 541 160 541 144 541C128 541 112 541 96 541C80 541 64 541 48 541C32 541 16 541 8 541L0 541Z" fill="#702f65"></path><path d="M0 515L8 512.7C16 510.3 32 505.7 48 505.5C64 505.3 80 509.7 96 510.7C112 511.7 128 509.3 144 508.2C160 507 176 507 192 506.7C208 506.3 224 505.7 240 504.7C256 503.7 272 502.3 288 501.5C304 500.7 320 500.3 336 503C352 505.7 368 511.3 384 510C400 508.7 416 500.3 432 497C448 493.7 464 495.3 480 495.5C496 495.7 512 494.3 528 495.7C544 497 560 501 576 504.3C592 507.7 608 510.3 624 512.2C640 514 656 515 672 516.2C688 517.3 704 518.7 720 517.2C736 515.7 752 511.3 768 509.3C784 507.3 800 507.7 816 507.8C832 508 848 508 864 507.2C880 506.3 896 504.7 912 502.5C928 500.3 944 497.7 952 496.3L960 495L960 541L952 541C944 541 928 541 912 541C896 541 880 541 864 541C848 541 832 541 816 541C800 541 784 541 768 541C752 541 736 541 720 541C704 541 688 541 672 541C656 541 640 541 624 541C608 541 592 541 576 541C560 541 544 541 528 541C512 541 496 541 480 541C464 541 448 541 432 541C416 541 400 541 384 541C368 541 352 541 336 541C320 541 304 541 288 541C272 541 256 541 240 541C224 541 208 541 192 541C176 541 160 541 144 541C128 541 112 541 96 541C80 541 64 541 48 541C32 541 16 541 8 541L0 541Z" fill="#89476f"></path><path d="M0 533L8 530.2C16 527.3 32 521.7 48 520.7C64 519.7 80 523.3 96 522.7C112 522 128 517 144 516.3C160 515.7 176 519.3 192 522.5C208 525.7 224 528.3 240 528.3C256 528.3 272 525.7 288 524C304 522.3 320 521.7 336 520.8C352 520 368 519 384 520.2C400 521.3 416 524.7 432 524.3C448 524 464 520 480 520C496 520 512 524 528 525.3C544 526.7 560 525.3 576 523.7C592 522 608 520 624 520.5C640 521 656 524 672 525.7C688 527.3 704 527.7 720 527.7C736 527.7 752 527.3 768 527.3C784 527.3 800 527.7 816 528.5C832 529.3 848 530.7 864 527.7C880 524.7 896 517.3 912 513.8C928 510.3 944 510.7 952 510.8L960 511L960 541L952 541C944 541 928 541 912 541C896 541 880 541 864 541C848 541 832 541 816 541C800 541 784 541 768 541C752 541 736 541 720 541C704 541 688 541 672 541C656 541 640 541 624 541C608 541 592 541 576 541C560 541 544 541 528 541C512 541 496 541 480 541C464 541 448 541 432 541C416 541 400 541 384 541C368 541 352 541 336 541C320 541 304 541 288 541C272 541 256 541 240 541C224 541 208 541 192 541C176 541 160 541 144 541C128 541 112 541 96 541C80 541 64 541 48 541C32 541 16 541 8 541L0 541Z" fill="#a0617b"></path></svg>